<?xml version="1.0" encoding="UTF-8" standalone="no"?>
<!-- Created with Inkscape (http://www.inkscape.org/) -->

<svg
   width="210mm"
   height="210mm"
   viewBox="0 0 210 210"
   version="1.1"
   id="svg1"
   inkscape:version="1.3.2 (091e20ef0f, 2023-11-25, custom)"
   sodipodi:docname="logo.svg"
   inkscape:export-filename="logo.png"
   inkscape:export-xdpi="60.476189"
   inkscape:export-ydpi="60.476189"
   xmlns:inkscape="http://www.inkscape.org/namespaces/inkscape"
   xmlns:sodipodi="http://sodipodi.sourceforge.net/DTD/sodipodi-0.dtd"
   xmlns="http://www.w3.org/2000/svg"
   xmlns:svg="http://www.w3.org/2000/svg">
  <sodipodi:namedview
     id="namedview1"
     pagecolor="#808080"
     bordercolor="#999999"
     borderopacity="1"
     inkscape:showpageshadow="2"
     inkscape:pageopacity="0"
     inkscape:pagecheckerboard="0"
     inkscape:deskcolor="#d1d1d1"
     inkscape:document-units="mm"
     showguides="true"
     inkscape:zoom="0.56568542"
     inkscape:cx="136.11806"
     inkscape:cy="407.47028"
     inkscape:window-width="1914"
     inkscape:window-height="1051"
     inkscape:window-x="0"
     inkscape:window-y="0"
     inkscape:window-maximized="0"
     inkscape:current-layer="layer1" />
  <defs
     id="defs1">
    <inkscape:path-effect
       effect="mirror_symmetry"
       start_point="105,0"
       end_point="105,210"
       center_point="105,105"
       id="path-effect47"
       is_visible="true"
       lpeversion="1.2"
       lpesatellites=""
       mode="vertical"
       discard_orig_path="false"
       fuse_paths="true"
       oposite_fuse="false"
       split_items="false"
       split_open="false"
       link_styles="false" />
    <inkscape:path-effect
       effect="bounding_box"
       linkedpath=""
       id="path-effect26"
       is_visible="true"
       lpeversion="1.3"
       visualbounds="false" />
    <inkscape:path-effect
       effect="clone_original"
       linkeditem=""
       id="path-effect25"
       is_visible="true"
       lpeversion="1"
       method="none"
       attributes=""
       css_properties=""
       allow_transforms="true" />
    <inkscape:path-effect
       effect="fill_between_many"
       id="path-effect24"
       is_visible="false"
       lpeversion="1.2"
       linkedpaths=""
       method="bsplinespiro"
       join="true"
       close="true"
       autoreverse="true" />
    <inkscape:path-effect
       effect="mirror_symmetry"
       start_point="105,0"
       end_point="105,210"
       center_point="105,105"
       id="path-effect4"
       is_visible="true"
       lpeversion="1.2"
       lpesatellites=""
       mode="vertical"
       discard_orig_path="false"
       fuse_paths="true"
       oposite_fuse="false"
       split_items="false"
       split_open="false"
       link_styles="false" />
    <inkscape:path-effect
       effect="mirror_symmetry"
       start_point="102.3622,58.029275"
       end_point="142.4901,58.029275"
       center_point="122.42615,58.029275"
       id="path-effect3"
       is_visible="true"
       lpeversion="1.2"
       lpesatellites=""
       mode="free"
       discard_orig_path="false"
       fuse_paths="false"
       oposite_fuse="false"
       split_items="false"
       split_open="false"
       link_styles="false" />
    <inkscape:path-effect
       effect="mirror_symmetry"
       start_point="103.80392,51.90196"
       end_point="103.80392,68.481754"
       center_point="103.80392,60.191857"
       id="path-effect2"
       is_visible="true"
       lpeversion="1.2"
       lpesatellites=""
       mode="free"
       discard_orig_path="false"
       fuse_paths="false"
       oposite_fuse="false"
       split_items="false"
       split_open="false"
       link_styles="false" />
  </defs>
  <g
     inkscape:groupmode="layer"
     id="layer1"
     inkscape:label="Logo"
     inkscape:path-effect="#path-effect4">
    <path
       style="fill:#000000;fill-rule:evenodd;stroke-width:10;stroke-linecap:round;stroke-linejoin:round;stroke-miterlimit:5"
       d="m 88.226562,1.5957031 c -1.578671,0.01612 -3.293799,0.087854 -5.158203,0.2285156 C 66.019919,3.1104521 53.536405,12.646957 51.59375,14.671875 c 0,0 2.994159,-0.446481 4.339844,0.664063 -12.802882,3.44915 -20.277962,13.781382 -19.119141,20.083984 l 8.011719,-2.892578 c -0.72974,2.3739 -0.724384,2.993802 0.294922,4.888672 -0.547994,1.673682 -3.697266,1.121093 -3.697266,1.121093 -0.461575,0.92315 2.698977,4.71799 6.076172,5.316407 -5.710155,-0.273179 -11.641633,-3.211951 -17.462891,-4.81836 2.086091,4.686438 3.961434,8.49651 6.666016,11.636719 -2.820624,1.115012 -8.112801,-0.870647 -11.806641,-0.919922 5.514055,8.996292 12.608242,11.846564 13.384766,11.277344 0,0 -2.026324,3.815484 -1.900391,4.464844 0.661458,3.41071 12.566407,-0.330079 12.566407,-0.330079 -15.727265,11.66438 -22.972575,23.19284 -21.910157,38.199218 0.515447,7.28055 14.964844,18.27149 14.964844,18.27149 -5.2037,5.65113 -11.013959,4.83379 -16.867187,3.55664 0,0 2.289386,9.68296 9.28125,13.11328 -2.824406,0.10611 -5.347657,-3.05274 -5.347657,-3.05274 0,0 -4.10085,3.80162 -0.679687,15.30274 1.88972,6.35278 6.037567,10.36257 11.050781,12.00781 7.038501,2.3099 21.414063,-4.62891 21.414063,-4.62891 0,0 2.837276,13.27911 5.191406,19.44336 2.40036,6.28532 11.857422,18.17188 11.857422,18.17188 -1.058304,-6.36637 -1.165616,-9.17961 -0.181641,-13.96875 0,0 -0.285529,5.04832 4.908203,12.65429 4.946333,7.24369 11.421875,13.95508 11.421875,13.95508 -1.29058,-13.61175 -3.179429,-30.03082 -1.447265,-43.64258 l 12.251954,40.34766 0.14453,-0.14648 0.14453,0.14648 12.25195,-40.34766 c 1.73217,13.61176 -0.15668,30.03083 -1.44726,43.64258 0,0 6.47554,-6.71139 11.42187,-13.95508 5.19374,-7.60597 4.90821,-12.65429 4.90821,-12.65429 0.98397,4.78914 0.87666,7.60238 -0.18164,13.96875 0,0 9.45706,-11.88656 11.85742,-18.17188 2.35413,-6.16425 5.1914,-19.44336 5.1914,-19.44336 0,0 14.37557,6.93881 21.41407,4.62891 5.01321,-1.64524 9.16106,-5.65503 11.05078,-12.00781 3.42116,-11.50112 -0.67969,-15.30274 -0.67969,-15.30274 0,0 -2.52325,3.15885 -5.34766,3.05274 6.99187,-3.43032 9.28125,-13.11328 9.28125,-13.11328 -5.85322,1.27715 -11.66348,2.09449 -16.86718,-3.55664 0,0 14.44939,-10.99094 14.96484,-18.27149 1.06242,-15.006378 -6.18289,-26.534838 -21.91016,-38.199218 0,0 11.90495,3.740789 12.56641,0.330079 0.12593,-0.64936 -1.90039,-4.464844 -1.90039,-4.464844 0.77652,0.56922 7.87071,-2.281052 13.38477,-11.277344 -3.69384,0.04928 -8.98602,2.034934 -11.80665,0.919922 2.70459,-3.140209 4.57993,-6.950281 6.66602,-11.636719 -5.82126,1.606409 -11.75273,4.545181 -17.46289,4.81836 3.37719,-0.598417 6.53775,-4.393257 6.07617,-5.316407 0,0 -3.14927,0.552589 -3.69726,-1.121093 1.0193,-1.89487 1.02466,-2.514772 0.29492,-4.888672 l 8.01172,2.892578 c 1.15882,-6.302602 -6.31626,-16.634834 -19.11914,-20.083984 1.34568,-1.110544 4.33984,-0.664063 4.33984,-0.664063 C 156.46359,12.646957 143.98008,3.1104521 126.93164,1.8242187 112.01641,0.6989272 106.5997,3.9478406 105,5.3359375 103.60027,4.1213527 99.277265,1.482861 88.226562,1.5957031 Z"
       id="path160"
       inkscape:original-d="m 105.57353,5.9320539 c 0,0 -3.71544,-5.52578363 -22.505191,-4.1081757 C 66.019882,3.1101128 53.536037,12.647026 51.59338,14.671946 c 0,0 2.993576,-0.446984 4.339262,0.663561 C 43.129747,18.784661 35.655868,29.117644 36.81469,35.420252 l 8.010863,-2.89388 c -0.729741,2.373903 -0.723774,2.995437 0.295533,4.890309 -0.547994,1.673684 -3.696546,1.121279 -3.696546,1.121279 -0.461576,0.923151 2.698021,4.716252 6.075219,5.314669 -5.710161,-0.273179 -11.642329,-3.210442 -17.463592,-4.816852 2.086093,4.686442 3.961875,8.495495 6.66646,11.635707 -2.820627,1.115013 -8.112097,-0.869548 -11.80594,-0.918823 5.51406,8.996301 12.608688,11.845827 13.385213,11.276606 0,0 -2.027626,3.815482 -1.901692,4.464842 0.661458,3.410714 12.567708,-0.330728 12.567708,-0.330728 -15.72728,11.664391 -22.973226,23.192825 -21.910807,38.199219 0.515447,7.28056 14.965494,18.27279 14.965494,18.27279 -5.203705,5.65114 -11.013953,4.83249 -16.867187,3.55533 0,0 2.288903,9.68293 9.280774,13.11325 -2.824408,0.10611 -5.347462,-3.05182 -5.347462,-3.05182 0,0 -4.101497,3.80085 -0.680331,15.30198 1.889722,6.35279 6.037837,10.36375 11.051056,12.00899 7.038508,2.3099 21.414713,-4.63021 21.414713,-4.63021 0,0 2.835798,13.28027 5.18993,19.44453 2.400363,6.28532 11.857816,18.17206 11.857816,18.17206 -1.058305,-6.36637 -1.164535,-9.18031 -0.180559,-13.96946 0,0 -0.285388,5.04856 4.908349,12.65454 4.946338,7.24369 11.420187,13.95456 11.420187,13.95456 -1.290582,-13.61177 -3.177888,-30.02988 -1.445723,-43.64165 l 12.251174,40.3461 6.10429,-6.11563 z"
       sodipodi:nodetypes="cssccccccccccscsccccsscsccsccccc" />
    <g
       id="g159"
       inkscape:label="Head"
       transform="translate(0,-5.6126601)">
      <path
         id="path20"
         style="fill:#ffffff;fill-rule:evenodd;stroke-width:9.37113;stroke-linejoin:round;stroke-miterlimit:5"
         d="m 64.506624,121.78643 c 0,0 -15.545156,32.42819 -24.840448,32.38338 -9.083184,-0.0438 -10.02577,-10.81319 -10.02577,-10.81319 0.127622,30.51297 26.726331,17.7968 30.32622,14.06795 -5.690002,2.37901 -10.76442,3.9348 -14.919766,3.41649 5.89736,-1.35849 12.738622,-4.14797 14.816617,-7.14148 -2.253935,-8.12589 1.83876,-19.70964 1.83876,-19.70964 0,0 -3.058063,5.93672 -5.456714,6.68287 1.915661,-1.56738 8.261101,-18.88638 8.261101,-18.88638 z m 80.986756,0 c 0,0 15.54515,32.42819 24.84044,32.38338 9.08319,-0.0438 10.02577,-10.81319 10.02577,-10.81319 -0.12762,30.51297 -26.72633,17.7968 -30.32622,14.06795 5.69001,2.37901 10.76442,3.9348 14.91977,3.41649 -5.89736,-1.35849 -12.73862,-4.14797 -14.81662,-7.14148 2.25394,-8.12589 -1.83876,-19.70964 -1.83876,-19.70964 0,0 3.05807,5.93672 5.45672,6.68287 -1.91566,-1.56738 -8.2611,-18.88638 -8.2611,-18.88638 z"
         inkscape:original-d="m 64.506624,121.78643 c 0,0 -15.545156,32.42819 -24.840448,32.38338 -9.083184,-0.0438 -10.02577,-10.81319 -10.02577,-10.81319 0.127622,30.51297 26.726331,17.7968 30.32622,14.06795 -5.690002,2.37901 -10.76442,3.9348 -14.919766,3.41649 5.89736,-1.35849 12.738622,-4.14797 14.816617,-7.14148 -2.253935,-8.12589 1.83876,-19.70964 1.83876,-19.70964 0,0 -3.058063,5.93672 -5.456714,6.68287 1.915661,-1.56738 8.261101,-18.88638 8.261101,-18.88638 z"
         sodipodi:nodetypes="csccccccc" />
      <path
         style="fill:#204a87;fill-rule:evenodd;stroke:none;stroke-width:4.68555;stroke-linecap:round;stroke-linejoin:round;stroke-miterlimit:5;stroke-dasharray:none"
         d="m 85.086691,74.322959 -8.590062,3.851997 z m 39.826619,0 8.59006,3.851997 z"
         id="path2"
         inkscape:original-d="m 85.086691,74.322959 -8.590062,3.851997 z"
         sodipodi:nodetypes="ccc" />
      <path
         style="fill:#c4a000;fill-rule:evenodd;stroke:none;stroke-width:4.68555;stroke-linecap:round;stroke-linejoin:round;stroke-miterlimit:5;stroke-dasharray:none"
         d="m 71.565143,72.997096 21.67318,8.725566 -13.623141,0.168883 z m 66.869717,0 -21.67318,8.725566 13.62314,0.168883 z"
         id="path6"
         inkscape:original-d="m 71.565143,72.997096 21.67318,8.725566 -13.623141,0.168883 z" />
      <path
         style="fill:#ffd835;fill-opacity:1;fill-rule:evenodd;stroke-width:9.37113;stroke-linejoin:round;stroke-miterlimit:5"
         d="m 71.590522,72.92972 c 2.881237,4.225699 10.699088,7.27698 21.84206,8.781863 0,0 -12.93231,3.891457 -17.943432,0.625576 -2.639777,-1.720413 -3.898628,-9.407439 -3.898628,-9.407439 z m 66.818958,0 c -2.88124,4.225699 -10.69909,7.27698 -21.84206,8.781863 0,0 12.93231,3.891457 17.94343,0.625576 2.63978,-1.720413 3.89863,-9.407439 3.89863,-9.407439 z"
         id="path3"
         inkscape:original-d="m 71.590522,72.92972 c 2.881237,4.225699 10.699088,7.27698 21.84206,8.781863 0,0 -12.93231,3.891457 -17.943432,0.625576 -2.639777,-1.720413 -3.898628,-9.407439 -3.898628,-9.407439 z"
         sodipodi:nodetypes="ccsc" />
      <path
         style="fill:#ffffff;fill-rule:evenodd;stroke-width:9.37113;stroke-linejoin:round;stroke-miterlimit:5"
         d="m 104.94922,72.124379 c 0,0 -2.19353,13.503196 -5.468751,19.351562 -1.956064,3.492832 -13.364885,8.047436 -8.146485,8.822269 4.254789,0.63175 9.190526,7.43926 13.666016,7.63476 4.47549,-0.1955 9.41123,-7.00301 13.66602,-7.63476 5.2184,-0.774833 -6.19042,-5.329437 -8.14649,-8.822269 -3.27522,-5.848366 -5.46875,-19.351562 -5.46875,-19.351562 L 105,79.464223 Z"
         id="path4"
         inkscape:original-d="m 104.94961,72.124467 c 0,0 -2.19301,13.502937 -5.468231,19.351309 -1.956066,3.492835 -13.366117,8.048413 -8.147711,8.823244 4.316831,0.64096 9.334922,7.63802 13.861802,7.63802 z"
         sodipodi:nodetypes="csscc" />
      <path
         style="fill:#ffffff;fill-rule:evenodd;stroke-width:9.37113;stroke-linejoin:round;stroke-miterlimit:5"
         d="m 102.23047,113.24352 c -3.766117,-0.0861 -9.390626,4.73633 -9.390626,4.73633 L 105,118.03454 l 12.16016,-0.0547 c 0,0 -5.62451,-4.82243 -9.39063,-4.73633 -0.81082,0.0185 -2.0712,0.4483 -2.76953,0.71094 -0.69833,-0.26264 -1.95871,-0.69241 -2.76953,-0.71094 z"
         id="path5"
         inkscape:original-d="m 102.23136,113.24318 c -3.76612,-0.0861 -9.391436,4.73669 -9.391436,4.73669 l 12.440976,0.0563 0.22903,-3.88174 c 0,0 -2.10735,-0.88449 -3.27857,-0.91125 z"
         sodipodi:nodetypes="scccs" />
      <path
         style="fill:#ffffff;fill-rule:evenodd;stroke-width:9.37113;stroke-linejoin:round;stroke-miterlimit:5"
         d="m 61.990826,72.326537 c 0,0 -7.966601,12.891361 -8.024378,15.572457 -0.05486,2.545771 5.945369,8.324721 12.455442,11.538156 6.011831,2.96751 9.111494,0.09043 9.111494,0.09043 l -6.796658,18.73761 c 3.417712,-6.74963 9.264938,-9.83563 13.811059,-13.92501 -0.246555,-4.919909 2.066295,-8.802892 6.9145,-12.873673 C 69.749625,88.96273 61.507338,80.043637 61.990826,72.326537 Z m 86.018344,0 c 0,0 7.9666,12.891361 8.02438,15.572457 0.0549,2.545771 -5.94537,8.324721 -12.45544,11.538156 -6.01183,2.96751 -9.11149,0.09043 -9.11149,0.09043 l 6.79665,18.73761 c -3.41771,-6.74963 -9.26493,-9.83563 -13.81106,-13.92501 0.24656,-4.919909 -2.06629,-8.802892 -6.9145,-12.873673 19.71267,-2.503777 27.95495,-11.42287 27.47146,-19.13997 z"
         id="path10"
         inkscape:original-d="m 61.990826,72.326537 c 0,0 -7.966601,12.891361 -8.024378,15.572457 -0.05486,2.545771 5.945369,8.324721 12.455442,11.538156 6.011831,2.96751 9.111494,0.09043 9.111494,0.09043 l -6.796658,18.73761 c 3.417712,-6.74963 9.264938,-9.83563 13.811059,-13.92501 -0.246555,-4.919909 2.066295,-8.802892 6.9145,-12.873673 C 69.749625,88.96273 61.507338,80.043637 61.990826,72.326537 Z"
         sodipodi:nodetypes="cssccccc" />
      <path
         style="fill:#ffffff;fill-rule:evenodd;stroke-width:9.37113;stroke-linejoin:round;stroke-miterlimit:5"
         d="m 78.962891,32.563832 c 2.573332,6.028221 -3.354854,11.02165 6.822265,12.783203 -14.749082,-2.551992 -15.122905,9.538909 -16.779297,13.742188 0,0 2.954903,-3.355795 8.472657,-2.560547 5.517753,0.795248 20.578125,13.474609 20.578125,13.474609 L 105,61.372426 l 6.94336,8.630859 c 0,0 15.06037,-12.679361 20.57812,-13.474609 5.51776,-0.795248 8.47266,2.560547 8.47266,2.560547 -1.65639,-4.203279 -2.03021,-16.29418 -16.7793,-13.742188 10.17712,-1.761553 4.24894,-6.754982 6.82227,-12.783203 C 120.43638,33.434751 113.79132,34.384222 105,39.395863 96.208678,34.384222 89.56362,33.434751 78.962891,32.563832 Z"
         id="path11"
         inkscape:original-d="m 77.478116,56.528814 c 5.517759,0.795249 20.579487,13.475326 20.579487,13.475326 l 8.331517,-10.358092 -1.27146,-20.183877 c -8.849848,-5.070433 -15.506362,-6.023696 -26.154343,-6.898497 2.573335,6.028227 -3.35493,11.02215 6.822199,12.783705 -14.749097,-2.551995 -15.122526,9.538104 -16.778919,13.741387 0,0 2.95376,-3.355201 8.471519,-2.559952 z"
         sodipodi:nodetypes="zccccccz" />
      <path
         style="fill:#ffffff;fill-rule:evenodd;stroke-width:8.5087;stroke-linejoin:round;stroke-miterlimit:5"
         d="M 99.265577,31.78388 C 103.00394,25.164393 101.8828,18.099771 97.99179,10.781426 85.723052,7.5083648 71.179528,9.734662 58.779855,17.341968 c 35.577899,-5.75352 32.82393,6.657601 40.485722,14.441912 z m 11.468843,0 c -3.73836,-6.619487 -2.61722,-13.684109 1.27379,-21.002454 12.26874,-3.2730612 26.81226,-1.046764 39.21193,6.560542 -35.57789,-5.75352 -32.82392,6.657601 -40.48572,14.441912 z"
         id="path12"
         inkscape:original-d="M 99.265577,31.78388 C 103.00394,25.164393 101.8828,18.099771 97.99179,10.781426 85.723052,7.5083648 71.179528,9.734662 58.779855,17.341968 c 35.577899,-5.75352 32.82393,6.657601 40.485722,14.441912 z"
         sodipodi:nodetypes="cccc" />
      <path
         style="fill:#ffffff;fill-rule:evenodd;stroke-width:8.5087;stroke-linejoin:round;stroke-miterlimit:5"
         d="m 88.722081,29.788751 c 0,0 -4.622308,-10.359789 -25.241195,-8.337281 -19.955008,1.957387 -24.22459,15.702932 -24.22459,15.702932 4.459193,-3.12741 8.094954,-6.797897 14.517854,-8.630188 -4.115081,3.980628 -5.98242,7.961256 -7.144547,11.941885 8.609913,-12.066765 32.670899,-15.39065 42.092478,-10.677348 z m 32.555839,0 c 0,0 4.62231,-10.359789 25.24119,-8.337281 19.95501,1.957387 24.22459,15.702932 24.22459,15.702932 -4.45919,-3.12741 -8.09495,-6.797897 -14.51785,-8.630188 4.11508,3.980628 5.98242,7.961256 7.14455,11.941885 -8.60992,-12.066765 -32.6709,-15.39065 -42.09248,-10.677348 z"
         id="path13"
         inkscape:original-d="m 88.722081,29.788751 c 0,0 -4.622308,-10.359789 -25.241195,-8.337281 -19.955008,1.957387 -24.22459,15.702932 -24.22459,15.702932 4.459193,-3.12741 8.094954,-6.797897 14.517854,-8.630188 -4.115081,3.980628 -5.98242,7.961256 -7.144547,11.941885 8.609913,-12.066765 32.670899,-15.39065 42.092478,-10.677348 z"
         sodipodi:nodetypes="cscccc" />
      <path
         id="path14"
         style="fill:#ffffff;fill-rule:evenodd;stroke-width:9.37113;stroke-linejoin:round;stroke-miterlimit:5"
         d="m 73.152719,39.324549 c 0,0 -14.154458,14.028887 -22.777959,13.496992 -7.710911,-0.475608 -15.927041,-4.633462 -15.927041,-4.633462 0,0 3.28363,2.807562 5.851393,6.210717 1.442132,1.911314 2.710371,3.996159 4.206822,5.648485 -3.270323,0.64604 -6.713645,1.17272 -14.502328,-1.297351 4.5628,3.299073 9.381478,5.778775 14.897006,6.029118 -1.258685,1.659966 -1.287912,1.837817 -4.808282,3.9613 18.890483,-2.436696 28.982648,-20.059921 33.060389,-29.415799 z m 63.694561,0 c 0,0 14.15446,14.028887 22.77796,13.496992 7.71091,-0.475608 15.92704,-4.633462 15.92704,-4.633462 0,0 -3.28363,2.807562 -5.85139,6.210717 -1.44213,1.911314 -2.71037,3.996159 -4.20682,5.648485 3.27032,0.64604 6.71364,1.17272 14.50232,-1.297351 -4.5628,3.299073 -9.38147,5.778775 -14.897,6.029118 1.25868,1.659966 1.28791,1.837817 4.80828,3.9613 -18.89048,-2.436696 -28.98265,-20.059921 -33.06039,-29.415799 z"
         inkscape:original-d="m 73.152719,39.324549 c 0,0 -14.154458,14.028887 -22.777959,13.496992 -7.710911,-0.475608 -15.927041,-4.633462 -15.927041,-4.633462 0,0 3.28363,2.807562 5.851393,6.210717 1.442132,1.911314 2.710371,3.996159 4.206822,5.648485 -3.270323,0.64604 -6.713645,1.17272 -14.502328,-1.297351 4.5628,3.299073 9.381478,5.778775 14.897006,6.029118 -1.258685,1.659966 -1.287912,1.837817 -4.808282,3.9613 18.890483,-2.436696 28.982648,-20.059921 33.060389,-29.415799 z"
         sodipodi:nodetypes="cscsccccc" />
      <path
         style="fill:#ffffff;fill-rule:evenodd;stroke-width:9.37113;stroke-linejoin:round;stroke-miterlimit:5"
         d="m 89.19118,106.12765 c -29.720569,18.608 -28.481982,38.43784 -25.311799,53.42082 0,0 0.04151,-4.22813 2.816019,-5.82164 0,0 -1.133059,19.45849 6.930521,35.09273 -5.246257,-18.41902 -9.131753,-56.41185 25.025393,-78.62938 z m 31.61764,0 c 29.72057,18.608 28.48198,38.43784 25.3118,53.42082 0,0 -0.0415,-4.22813 -2.81602,-5.82164 0,0 1.13306,19.45849 -6.93052,35.09273 5.24626,-18.41902 9.13175,-56.41185 -25.02539,-78.62938 z"
         id="path15"
         inkscape:original-d="m 89.19118,106.12765 c -29.720569,18.608 -28.481982,38.43784 -25.311799,53.42082 0,0 0.04151,-4.22813 2.816019,-5.82164 0,0 -1.133059,19.45849 6.930521,35.09273 -5.246257,-18.41902 -9.131753,-56.41185 25.025393,-78.62938 z"
         sodipodi:nodetypes="cccccc" />
      <path
         style="fill:#ffffff;fill-rule:evenodd;stroke-width:9.37113;stroke-linejoin:round;stroke-miterlimit:5"
         d="m 101.81315,124.50897 c -5.421387,0.1948 -13.811459,11.43451 -16.847254,14.0149 0.448601,-2.6617 5.914625,-14.53766 8.726861,-17.19936 -21.935735,18.5038 -23.383141,51.01156 -4.935925,79.77091 -4.669118,-14.85596 -1.12727,-56.62108 13.056318,-76.58645 z m 6.3737,0 c 5.42139,0.1948 13.81146,11.43451 16.84725,14.0149 -0.4486,-2.6617 -5.91462,-14.53766 -8.72686,-17.19936 21.93574,18.5038 23.38314,51.01156 4.93593,79.77091 4.66912,-14.85596 1.12727,-56.62108 -13.05632,-76.58645 z"
         id="path16"
         inkscape:original-d="m 101.81315,124.50897 c -5.421387,0.1948 -13.811459,11.43451 -16.847254,14.0149 0.448601,-2.6617 5.914625,-14.53766 8.726861,-17.19936 -21.935735,18.5038 -23.383141,51.01156 -4.935925,79.77091 -4.669118,-14.85596 -1.12727,-56.62108 13.056318,-76.58645 z"
         sodipodi:nodetypes="ccccc" />
      <path
         style="fill:#ffffff;fill-rule:evenodd;stroke-width:9.37113;stroke-linejoin:round;stroke-miterlimit:5"
         d="m 104.99805,124.34899 c 0,0 -10.082457,19.40469 -10.330081,29.6289 -0.31371,12.95291 9.292271,38.15941 10.332031,40.84766 1.03976,-2.68825 10.64574,-27.89475 10.33203,-40.84766 -0.24762,-10.22421 -10.33008,-29.6289 -10.33008,-29.6289 L 105,126.15368 Z"
         id="path17"
         inkscape:original-d="m 104.99762,124.34975 c 0,0 -10.081208,19.40459 -10.328832,29.62881 -0.331645,13.69342 10.422102,41.08078 10.422102,41.08078 z"
         sodipodi:nodetypes="cscc" />
      <path
         style="fill:#ffffff;fill-rule:evenodd;stroke-width:9.37113;stroke-linejoin:round;stroke-miterlimit:5"
         d="m 57.883828,68.445617 c 0,0 -31.451254,22.42038 -26.375646,40.325813 1.950151,6.87963 13.510554,14.41125 13.510554,14.41125 -1.314871,-3.80374 -8.724919,-28.587236 12.865092,-54.737063 z m 94.232342,0 c 0,0 31.45126,22.42038 26.37565,40.325813 -1.95015,6.87963 -13.51056,14.41125 -13.51056,14.41125 1.31487,-3.80374 8.72492,-28.587236 -12.86509,-54.737063 z"
         id="path18"
         inkscape:original-d="m 57.883828,68.445617 c 0,0 -31.451254,22.42038 -26.375646,40.325813 1.950151,6.87963 13.510554,14.41125 13.510554,14.41125 -1.314871,-3.80374 -8.724919,-28.587236 12.865092,-54.737063 z"
         sodipodi:nodetypes="cscc" />
      <path
         style="fill:#ffffff;fill-rule:evenodd;stroke-width:9.37113;stroke-linejoin:round;stroke-miterlimit:5"
         d="m 60.996851,102.34397 c -11.3555,17.59679 -15.838734,38.28243 -31.524626,32.76309 0,0 12.217698,17.4385 24.994524,-1.23846 2.340975,-3.422 7.963574,-17.57462 13.349201,-26.53171 -12.991128,16.40985 -11.615502,15.85808 -11.000091,14.57815 0.40635,-3.7496 4.180992,-19.57107 4.180992,-19.57107 z m 88.006299,0 c 11.3555,17.59679 15.83873,38.28243 31.52462,32.76309 0,0 -12.21769,17.4385 -24.99452,-1.23846 -2.34097,-3.422 -7.96357,-17.57462 -13.3492,-26.53171 12.99113,16.40985 11.6155,15.85808 11.00009,14.57815 -0.40635,-3.7496 -4.18099,-19.57107 -4.18099,-19.57107 z"
         id="path19"
         inkscape:original-d="m 60.996851,102.34397 c -11.3555,17.59679 -15.838734,38.28243 -31.524626,32.76309 0,0 12.217698,17.4385 24.994524,-1.23846 2.340975,-3.422 7.963574,-17.57462 13.349201,-26.53171 -12.991128,16.40985 -11.615502,15.85808 -11.000091,14.57815 0.40635,-3.7496 4.180992,-19.57107 4.180992,-19.57107 z"
         sodipodi:nodetypes="ccsccc" />
      <path
         style="fill:#ffffff;fill-rule:evenodd;stroke-width:9.37113;stroke-linejoin:round;stroke-miterlimit:5"
         d="m 54.048405,94.369534 c -6.755898,6.154506 -10.315509,13.907146 -6.304928,25.444876 0,0 -10.293625,-7.44493 -9.007035,-12.38466 1.625221,-6.23988 15.311963,-13.060216 15.311963,-13.060216 z m 101.903185,0 c 6.7559,6.154506 10.31551,13.907146 6.30493,25.444876 0,0 10.29363,-7.44493 9.00704,-12.38466 -1.62522,-6.23988 -15.31197,-13.060216 -15.31197,-13.060216 z"
         id="path1"
         inkscape:original-d="m 54.048405,94.369534 c -6.755898,6.154506 -10.315509,13.907146 -6.304928,25.444876 0,0 -10.293625,-7.44493 -9.007035,-12.38466 1.625221,-6.23988 15.311963,-13.060216 15.311963,-13.060216 z"
         sodipodi:nodetypes="ccsc" />
      <path
         style="fill:#ffffff;fill-opacity:1;fill-rule:evenodd;stroke-width:6.25774;stroke-linejoin:round;stroke-miterlimit:5"
         d="m 72.964648,69.735216 14.530597,6.069609 c 0,0 -10.406287,-9.043097 -14.14022,-7.407248 -1.217171,0.533247 -0.390377,1.337639 -0.390377,1.337639 z m 64.070702,0 -14.53059,6.069609 c 0,0 10.40628,-9.043097 14.14021,-7.407248 1.21718,0.533247 0.39038,1.337639 0.39038,1.337639 z"
         id="path7"
         inkscape:original-d="m 72.964648,69.735216 14.530597,6.069609 c 0,0 -10.406287,-9.043097 -14.14022,-7.407248 -1.217171,0.533247 -0.390377,1.337639 -0.390377,1.337639 z"
         sodipodi:nodetypes="ccsc" />
      <path
         style="fill:#ffffff;fill-opacity:1;fill-rule:evenodd;stroke-width:8.5087;stroke-linejoin:round;stroke-miterlimit:5"
         d="m 97.986328,10.780629 1.472656,5.412109 5.541016,3.13086 5.54102,-3.13086 1.47265,-5.412109 c -2.09437,0.312139 -4.74849,4.172625 -7.01367,4.347656 -2.26518,-0.175031 -4.9193,-4.035517 -7.013672,-4.347656 z"
         id="path9"
         inkscape:original-d="m 97.986204,10.781579 c 2.130916,0.317586 4.841406,4.306906 7.132006,4.35195 2.40602,0.04731 0.1882,4.363607 0.1882,4.363607 l -5.847951,-3.304389 z"
         sodipodi:nodetypes="csccc" />
      <path
         style="fill:#ffffff;fill-opacity:1;fill-rule:evenodd;stroke-width:9.37113;stroke-linejoin:round;stroke-miterlimit:5"
         d="m 70.44614,33.273956 c 0,0 -8.167629,6.098349 -12.737872,8.279616 -4.029184,1.923033 -12.737873,4.13981 -12.737873,4.13981 0,0 9.275311,1.437053 13.374765,-0.318448 5.243874,-2.245574 12.10098,-12.100978 12.10098,-12.100978 z m 69.10772,0 c 0,0 8.16763,6.098349 12.73787,8.279616 4.02919,1.923033 12.73787,4.13981 12.73787,4.13981 0,0 -9.27531,1.437053 -13.37476,-0.318448 -5.24387,-2.245574 -12.10098,-12.100978 -12.10098,-12.100978 z"
         id="path21"
         inkscape:original-d="m 70.44614,33.273956 c 0,0 -8.167629,6.098349 -12.737872,8.279616 -4.029184,1.923033 -12.737873,4.13981 -12.737873,4.13981 0,0 9.275311,1.437053 13.374765,-0.318448 5.243874,-2.245574 12.10098,-12.100978 12.10098,-12.100978 z"
         sodipodi:nodetypes="cscsc" />
      <path
         style="fill:#ffffff;fill-opacity:1;fill-rule:evenodd;stroke-width:9.37113;stroke-linejoin:round;stroke-miterlimit:5"
         d="m 46.341101,138.57466 c -2.712297,2.76599 -4.617447,5.99321 -8.669273,7.99374 3.86552,-1.11983 7.731039,-3.63482 11.59656,-6.98045 z m 117.317799,0 c 2.7123,2.76599 4.61745,5.99321 8.66927,7.99374 -3.86552,-1.11983 -7.73104,-3.63482 -11.59656,-6.98045 z"
         id="path24"
         inkscape:original-d="m 46.341101,138.57466 c -2.712297,2.76599 -4.617447,5.99321 -8.669273,7.99374 3.86552,-1.11983 7.731039,-3.63482 11.59656,-6.98045 z"
         sodipodi:nodetypes="cccc" />
      <path
         style="fill:#ffffff;fill-rule:evenodd;stroke-width:9.37113;stroke-linejoin:round;stroke-miterlimit:5"
         d="m 101.81315,124.50897 c -5.421387,0.1948 -13.811459,11.43451 -16.847254,14.0149 0.448601,-2.6617 5.914625,-14.53766 8.726861,-17.19936 -21.935735,18.5038 -23.383141,51.01156 -4.935925,79.77091 -4.669118,-14.85596 -1.12727,-56.62108 13.056318,-76.58645 z m 6.3737,0 c 5.42139,0.1948 13.81146,11.43451 16.84725,14.0149 -0.4486,-2.6617 -5.91462,-14.53766 -8.72686,-17.19936 21.93574,18.5038 23.38314,51.01156 4.93593,79.77091 4.66912,-14.85596 1.12727,-56.62108 -13.05632,-76.58645 z"
         id="path159"
         inkscape:original-d="m 101.81315,124.50897 c -5.421387,0.1948 -13.811459,11.43451 -16.847254,14.0149 0.448601,-2.6617 5.914625,-14.53766 8.726861,-17.19936 -21.935735,18.5038 -23.383141,51.01156 -4.935925,79.77091 -4.669118,-14.85596 -1.12727,-56.62108 13.056318,-76.58645 z"
         sodipodi:nodetypes="ccccc" />
    </g>
  </g>
</svg>
